<svg width="160" height="48" viewBox="0 0 160 48" fill="none" xmlns="http://www.w3.org/2000/svg">
<g clip-path="url(#clip0_14393_44866)">
<path d="M137.643 47.0737C132.109 49.1935 129.858 47.1853 129.858 45.9178C131.819 45.7544 136.504 45.4884 137.643 47.0737ZM144.668 45.3405C143.293 46.3397 141.605 46.8233 139.903 46.7052C138.202 46.5871 136.598 45.875 135.378 44.6958C137.267 44.1769 142.424 43.5619 144.668 45.3405ZM135.305 41.2203C135.515 43.8577 132.784 45.3405 129.836 45.5546C130.374 42.9016 133.127 41.7172 135.305 41.2203ZM140.593 38.7892C140.905 39.9165 140.476 42.9769 136.235 44.1911C136.417 42.1245 137.528 39.4339 140.593 38.7892ZM149.003 41.8573C147.916 42.9305 146.482 43.5925 144.952 43.7278C143.422 43.8632 141.892 43.4634 140.63 42.598C142.329 41.7315 146.41 40.5613 149.003 41.8573ZM144.522 35.7522C145.103 36.8627 145.226 40.0268 141.471 41.9312C141.254 39.8945 142.081 36.4112 144.522 35.7522ZM153.811 36.9821C153.458 37.67 152.967 38.2797 152.368 38.7742C151.768 39.2686 151.074 39.6374 150.327 39.8582C149.586 40.0732 148.808 40.1335 148.043 40.0352C147.278 39.937 146.541 39.6823 145.881 39.2873C148.248 37.0858 152.025 36.2413 153.811 36.9821ZM148.198 31.0832C149.882 33.9892 148.102 37.3077 146.251 38.6711C145.427 35.9702 146.184 33.0266 148.198 31.0832ZM156.935 30.9574C157.138 35.4707 152.374 35.2255 150.136 35.2554C150.841 34.307 154.755 30.8692 156.935 30.9574ZM151.06 26.7412C151.945 27.7051 153.273 31.4102 150.332 34.4329C149.41 32.2469 149.208 28.8908 151.06 26.7412ZM159.433 24.7408C159.586 28.3862 156.484 30.2309 153.492 30.2024C154.392 28.4458 156.797 25.0599 159.433 24.7408ZM153.158 22.2292C155.141 23.3838 154.915 27.1122 153.746 29.053C152.431 27.2458 151.45 25.0002 153.158 22.2292ZM159.563 18.8134C160.544 22.1332 157.662 24.3788 155.932 24.5708C156.375 22.9855 156.955 20.1769 159.563 18.8134ZM153.521 17.7094C155.708 18.7926 156.744 21.3834 155.925 23.7185C154.4 22.5029 152.563 19.9317 153.521 17.7094ZM159.666 13.693C161.016 17.7315 157.915 19.0508 156.761 19.3751C156.898 17.6575 158.003 14.2339 159.666 13.693ZM153.608 12.6331C154.494 12.8861 157.022 14.9384 156.564 18.6136C154.901 17.6874 152.881 15.923 153.608 12.6331ZM158.75 7.57362C160.261 12.5371 157.74 14.5751 156.913 14.9812C156.782 13.4115 156.622 9.744 158.75 7.57362ZM153.158 7.69816C154.741 8.13535 156.738 11.0102 156.644 13.7747C155.075 13.0638 152.729 10.1072 153.158 7.69816ZM153.63 0C157.305 3.75697 157.82 6.72 156.746 10.3732C155.082 8.89168 153.753 4.44584 153.63 0ZM22.3567 47.0737C27.8912 49.1935 30.1417 47.1853 30.1417 45.9178C28.181 45.7544 23.4964 45.4884 22.3567 47.0737ZM15.3312 45.3405C16.7055 46.3397 18.394 46.8233 20.0954 46.7052C21.7968 46.5871 23.4005 45.875 24.6203 44.6958C22.7318 44.1769 17.5751 43.5619 15.3312 45.3405ZM24.6938 41.2203C24.484 43.8577 27.2144 45.3405 30.1626 45.5546C29.6249 42.9016 26.8721 41.7172 24.6938 41.2203ZM19.4072 38.7892C19.0951 39.9165 19.5239 42.9769 23.7653 44.1911C23.583 42.1245 22.4721 39.4339 19.4072 38.7892ZM10.9967 41.8573C12.0843 42.9305 13.5179 43.5925 15.048 43.7278C16.5781 43.8632 18.1077 43.4634 19.3705 42.598C17.6708 41.7315 13.5895 40.5613 10.9967 41.8573ZM15.478 35.7522C14.8971 36.8627 14.7738 40.0268 18.5285 41.9312C18.7462 39.8945 17.9187 36.4112 15.478 35.7522ZM6.18887 36.9821C6.54234 37.67 7.0335 38.2797 7.63252 38.7742C8.23154 39.2686 8.92591 39.6374 9.67346 39.8582C10.414 40.0732 11.1917 40.1335 11.9571 40.0352C12.7225 39.937 13.4588 39.6823 14.1194 39.2873C11.7521 37.0858 7.9751 36.2413 6.18887 36.9821ZM11.802 31.0832C10.118 33.9892 11.8977 37.3077 13.7495 38.6711C14.5731 35.9702 13.8177 33.0266 11.8033 31.0832H11.802ZM3.06493 30.9574C2.86165 35.4707 7.62624 35.2255 9.86362 35.2554C9.15936 34.307 5.2446 30.8692 3.06493 30.9574ZM8.94034 26.7412C8.0551 27.7051 6.72657 31.4102 9.66821 34.4329C10.5902 32.2469 10.7921 28.8908 8.94034 26.7412ZM0.567883 24.7408C0.415752 28.3862 3.51739 30.2309 6.50887 30.2024C5.60919 28.4458 3.20395 25.0599 0.567883 24.7408ZM6.84329 22.2292C4.86034 23.3838 5.08592 27.1122 6.25575 29.053C7.56985 27.2458 8.55083 25.0002 6.84329 22.2292ZM0.436736 18.8134C-0.544248 22.1332 2.33837 24.3788 4.06821 24.5708C3.62493 22.9855 3.04395 20.1769 0.435424 18.8134H0.436736ZM6.4787 17.7094C4.29247 18.7926 3.25641 21.3834 4.07477 23.7185C5.60001 22.5029 7.43739 19.9317 6.4787 17.7094ZM0.334441 13.693C-1.01638 17.7315 2.08526 19.0508 3.23936 19.3751C3.10165 17.6575 1.99739 14.2339 0.334441 13.693ZM6.39215 12.6331C5.50559 12.8861 2.97837 14.9384 3.43608 18.6136C5.09903 17.6874 7.1187 15.923 6.39215 12.6331ZM1.24985 7.57362C-0.260969 12.5371 2.25969 14.5751 3.08723 14.9812C3.21838 13.4115 3.37838 9.744 1.24985 7.57362ZM6.84198 7.69816C5.25903 8.13535 3.26165 11.0102 3.35608 13.7747C4.9246 13.0638 7.27083 10.1072 6.84198 7.69816ZM6.36985 0C2.6951 3.75697 2.17969 6.72 3.25378 10.3732C4.91805 8.89168 6.24657 4.44584 6.36985 0Z" fill="black"/>
<path d="M49.2554 8.77576V0.775757H54.3804V1.9906H50.7046V4.16248H54.0288V5.37732H50.7046V8.77576H49.2554ZM57.854 8.89294C57.2524 8.89294 56.7329 8.76794 56.2954 8.51794C55.8605 8.26534 55.5259 7.90857 55.2915 7.44763C55.0571 6.98409 54.9399 6.43852 54.9399 5.81091C54.9399 5.19373 55.0571 4.65206 55.2915 4.18591C55.5285 3.71716 55.8592 3.35258 56.2837 3.09216C56.7082 2.82914 57.2069 2.69763 57.7798 2.69763C58.1496 2.69763 58.4985 2.75753 58.8267 2.87732C59.1574 2.99451 59.4491 3.1768 59.7017 3.42419C59.9569 3.67159 60.1574 3.98669 60.3032 4.36951C60.4491 4.74972 60.522 5.20284 60.522 5.72888V6.16248H55.604V5.20935H59.1665C59.1639 4.93852 59.1053 4.69763 58.9907 4.48669C58.8761 4.27315 58.716 4.10518 58.5103 3.98279C58.3071 3.86039 58.0701 3.79919 57.7993 3.79919C57.5103 3.79919 57.2563 3.86951 57.0376 4.01013C56.8188 4.14815 56.6483 4.33044 56.5259 4.55701C56.4061 4.78096 56.3449 5.02706 56.3423 5.29529V6.12732C56.3423 6.47628 56.4061 6.77576 56.5337 7.02576C56.6613 7.27315 56.8397 7.46326 57.0688 7.59607C57.298 7.72628 57.5662 7.79138 57.8735 7.79138C58.0793 7.79138 58.2655 7.76274 58.4321 7.70544C58.5988 7.64555 58.7433 7.55831 58.8657 7.44373C58.9881 7.32914 59.0806 7.18722 59.1431 7.01794L60.4634 7.16638C60.38 7.51534 60.2212 7.82003 59.9868 8.08044C59.755 8.33826 59.4582 8.53878 59.0962 8.68201C58.7342 8.82263 58.3201 8.89294 57.854 8.89294ZM63.4448 8.89685C63.0646 8.89685 62.7222 8.82914 62.4175 8.69373C62.1154 8.5557 61.8758 8.35258 61.6987 8.08435C61.5243 7.81612 61.437 7.48539 61.437 7.09216C61.437 6.75362 61.4995 6.47367 61.6245 6.25232C61.7495 6.03097 61.9201 5.85388 62.1362 5.72107C62.3524 5.58826 62.5959 5.488 62.8667 5.42029C63.1401 5.34998 63.4227 5.29919 63.7144 5.26794C64.0659 5.23149 64.3511 5.19893 64.5698 5.17029C64.7886 5.13904 64.9474 5.09216 65.0464 5.02966C65.1479 4.96456 65.1987 4.8643 65.1987 4.72888V4.70544C65.1987 4.41117 65.1115 4.18331 64.937 4.02185C64.7625 3.86039 64.5112 3.77966 64.1831 3.77966C63.8368 3.77966 63.562 3.85518 63.3589 4.00623C63.1584 4.15727 63.0229 4.33565 62.9526 4.54138L61.6323 4.35388C61.7365 3.9893 61.9084 3.68461 62.1479 3.43982C62.3875 3.19242 62.6805 3.00753 63.0269 2.88513C63.3732 2.76013 63.756 2.69763 64.1753 2.69763C64.4644 2.69763 64.7521 2.73149 65.0386 2.79919C65.325 2.8669 65.5868 2.97888 65.8237 3.13513C66.0607 3.28878 66.2508 3.49841 66.394 3.76404C66.5399 4.02966 66.6128 4.36169 66.6128 4.76013V8.77576H65.2534V7.95154H65.2065C65.1206 8.1182 64.9995 8.27445 64.8433 8.42029C64.6896 8.56352 64.4956 8.6794 64.2612 8.76794C64.0295 8.85388 63.7573 8.89685 63.4448 8.89685ZM63.812 7.85779C64.0959 7.85779 64.342 7.8018 64.5503 7.68982C64.7586 7.57524 64.9188 7.42419 65.0308 7.23669C65.1453 7.04919 65.2026 6.84477 65.2026 6.62341V5.91638C65.1584 5.95284 65.0828 5.98669 64.9761 6.01794C64.8719 6.04919 64.7547 6.07654 64.6245 6.09998C64.4943 6.12341 64.3654 6.14425 64.2378 6.16248C64.1102 6.1807 63.9995 6.19633 63.9058 6.20935C63.6948 6.238 63.506 6.28487 63.3394 6.34998C63.1727 6.41508 63.0412 6.50623 62.9448 6.62341C62.8485 6.738 62.8003 6.88643 62.8003 7.06873C62.8003 7.32914 62.8953 7.52576 63.0854 7.65857C63.2756 7.79138 63.5177 7.85779 63.812 7.85779ZM71.0308 2.77576V3.86951H67.5815V2.77576H71.0308ZM68.4331 1.33826H69.8472V6.97107C69.8472 7.16117 69.8758 7.30701 69.9331 7.40857C69.993 7.50753 70.0711 7.57524 70.1675 7.61169C70.2638 7.64815 70.3706 7.66638 70.4878 7.66638C70.5763 7.66638 70.6571 7.65987 70.73 7.64685C70.8055 7.63383 70.8628 7.62211 70.9019 7.61169L71.1401 8.71716C71.0646 8.7432 70.9565 8.77185 70.8159 8.8031C70.6779 8.83435 70.5086 8.85258 70.3081 8.85779C69.9539 8.8682 69.6349 8.81482 69.3511 8.69763C69.0672 8.57784 68.842 8.39294 68.6753 8.14294C68.5112 7.89294 68.4305 7.58044 68.4331 7.20544V1.33826ZM76.0376 6.25232V2.77576H77.4517V8.77576H76.0806V7.70935H76.0181C75.8826 8.04529 75.66 8.32003 75.3501 8.53357C75.0428 8.74711 74.6639 8.85388 74.2134 8.85388C73.8201 8.85388 73.4725 8.76664 73.1704 8.59216C72.8709 8.41508 72.6366 8.15857 72.4673 7.82263C72.298 7.48409 72.2134 7.07524 72.2134 6.59607V2.77576H73.6274V6.37732C73.6274 6.75753 73.7316 7.05961 73.9399 7.28357C74.1483 7.50753 74.4217 7.61951 74.7603 7.61951C74.9686 7.61951 75.1704 7.56873 75.3657 7.46716C75.561 7.3656 75.7212 7.21456 75.8462 7.01404C75.9738 6.81091 76.0376 6.55701 76.0376 6.25232ZM78.9058 8.77576V2.77576H80.2769V3.77576H80.3394C80.4487 3.4294 80.6362 3.16248 80.9019 2.97498C81.1701 2.78487 81.4761 2.68982 81.8198 2.68982C81.8979 2.68982 81.9852 2.69373 82.0815 2.70154C82.1805 2.70675 82.2625 2.71586 82.3276 2.72888V4.02966C82.2677 4.00883 82.1727 3.9906 82.0425 3.97498C81.9149 3.95675 81.7912 3.94763 81.6714 3.94763C81.4136 3.94763 81.1818 4.00362 80.9761 4.1156C80.7729 4.22498 80.6128 4.37732 80.4956 4.57263C80.3784 4.76794 80.3198 4.9932 80.3198 5.24841V8.77576H78.9058ZM85.6763 8.89294C85.0747 8.89294 84.5552 8.76794 84.1177 8.51794C83.6828 8.26534 83.3481 7.90857 83.1138 7.44763C82.8794 6.98409 82.7622 6.43852 82.7622 5.81091C82.7622 5.19373 82.8794 4.65206 83.1138 4.18591C83.3507 3.71716 83.6815 3.35258 84.106 3.09216C84.5304 2.82914 85.0291 2.69763 85.6021 2.69763C85.9718 2.69763 86.3208 2.75753 86.6489 2.87732C86.9797 2.99451 87.2713 3.1768 87.5239 3.42419C87.7791 3.67159 87.9797 3.98669 88.1255 4.36951C88.2713 4.74972 88.3442 5.20284 88.3442 5.72888V6.16248H83.4263V5.20935H86.9888C86.9862 4.93852 86.9276 4.69763 86.813 4.48669C86.6984 4.27315 86.5382 4.10518 86.3325 3.98279C86.1294 3.86039 85.8924 3.79919 85.6216 3.79919C85.3325 3.79919 85.0786 3.86951 84.8599 4.01013C84.6411 4.14815 84.4705 4.33044 84.3481 4.55701C84.2284 4.78096 84.1672 5.02706 84.1646 5.29529V6.12732C84.1646 6.47628 84.2284 6.77576 84.356 7.02576C84.4836 7.27315 84.6619 7.46326 84.8911 7.59607C85.1203 7.72628 85.3885 7.79138 85.6958 7.79138C85.9015 7.79138 86.0877 7.76274 86.2544 7.70544C86.4211 7.64555 86.5656 7.55831 86.688 7.44373C86.8104 7.32914 86.9028 7.18722 86.9653 7.01794L88.2856 7.16638C88.2023 7.51534 88.0435 7.82003 87.8091 8.08044C87.5773 8.33826 87.2804 8.53878 86.9185 8.68201C86.5565 8.82263 86.1424 8.89294 85.6763 8.89294ZM91.7671 8.88123C91.2957 8.88123 90.8739 8.76013 90.5015 8.51794C90.1291 8.27576 89.8348 7.92419 89.6187 7.46326C89.4025 7.00232 89.2944 6.44242 89.2944 5.78357C89.2944 5.1169 89.4038 4.5544 89.6226 4.09607C89.8439 3.63513 90.1421 3.28748 90.5171 3.0531C90.8921 2.81612 91.3101 2.69763 91.771 2.69763C92.1226 2.69763 92.4116 2.75753 92.6382 2.87732C92.8647 2.99451 93.0444 3.13643 93.1772 3.3031C93.3101 3.46716 93.4129 3.62211 93.4858 3.76794H93.5444V0.775757H94.9624V8.77576H93.5718V7.83044H93.4858C93.4129 7.97628 93.3075 8.13123 93.1694 8.29529C93.0314 8.45675 92.8491 8.59477 92.6226 8.70935C92.396 8.82393 92.1108 8.88123 91.7671 8.88123ZM92.1616 7.72107C92.4611 7.72107 92.7163 7.64034 92.9272 7.47888C93.1382 7.31482 93.2983 7.08695 93.4077 6.79529C93.5171 6.50362 93.5718 6.16378 93.5718 5.77576C93.5718 5.38774 93.5171 5.0505 93.4077 4.76404C93.3009 4.47758 93.1421 4.25492 92.9312 4.09607C92.7228 3.93721 92.4663 3.85779 92.1616 3.85779C91.8465 3.85779 91.5835 3.93982 91.3726 4.10388C91.1616 4.26794 91.0028 4.49451 90.896 4.78357C90.7892 5.07263 90.7358 5.40336 90.7358 5.77576C90.7358 6.15076 90.7892 6.48539 90.896 6.77966C91.0054 7.07133 91.1655 7.3018 91.3765 7.47107C91.59 7.63774 91.8517 7.72107 92.1616 7.72107ZM99.2603 8.77576V0.775757H100.674V3.76794H100.733C100.806 3.62211 100.909 3.46716 101.042 3.3031C101.174 3.13643 101.354 2.99451 101.581 2.87732C101.807 2.75753 102.096 2.69763 102.448 2.69763C102.911 2.69763 103.329 2.81612 103.702 3.0531C104.077 3.28748 104.374 3.63513 104.592 4.09607C104.814 4.5544 104.924 5.1169 104.924 5.78357C104.924 6.44242 104.816 7.00232 104.6 7.46326C104.384 7.92419 104.09 8.27576 103.717 8.51794C103.345 8.76013 102.923 8.88123 102.452 8.88123C102.108 8.88123 101.823 8.82393 101.596 8.70935C101.37 8.59477 101.187 8.45675 101.049 8.29529C100.914 8.13123 100.808 7.97628 100.733 7.83044H100.651V8.77576H99.2603ZM100.647 5.77576C100.647 6.16378 100.702 6.50362 100.811 6.79529C100.923 7.08695 101.083 7.31482 101.292 7.47888C101.502 7.64034 101.758 7.72107 102.057 7.72107C102.37 7.72107 102.631 7.63774 102.842 7.47107C103.053 7.3018 103.212 7.07133 103.319 6.77966C103.428 6.48539 103.483 6.15076 103.483 5.77576C103.483 5.40336 103.43 5.07263 103.323 4.78357C103.216 4.49451 103.057 4.26794 102.846 4.10388C102.635 3.93982 102.372 3.85779 102.057 3.85779C101.755 3.85779 101.499 3.93721 101.288 4.09607C101.077 4.25492 100.917 4.47758 100.807 4.76404C100.7 5.0505 100.647 5.38774 100.647 5.77576ZM106.801 11.0258C106.609 11.0258 106.43 11.0101 106.266 10.9789C106.105 10.9502 105.976 10.9164 105.879 10.8773L106.208 9.77576C106.413 9.83565 106.597 9.8643 106.758 9.86169C106.92 9.85909 107.062 9.80831 107.184 9.70935C107.309 9.613 107.415 9.45154 107.5 9.22498L107.622 8.90076L105.446 2.77576H106.946L108.329 7.30701H108.391L109.778 2.77576H111.282L108.879 9.50232C108.767 9.82003 108.619 10.0922 108.434 10.3187C108.249 10.5479 108.023 10.7224 107.754 10.8422C107.489 10.9646 107.171 11.0258 106.801 11.0258ZM68.1396 16.7758C68.1396 17.6377 67.9782 18.376 67.6553 18.9906C67.335 19.6026 66.8975 20.0713 66.3428 20.3969C65.7907 20.7224 65.1644 20.8851 64.4639 20.8851C63.7633 20.8851 63.1357 20.7224 62.5811 20.3969C62.029 20.0687 61.5915 19.5987 61.2686 18.9867C60.9482 18.3721 60.7881 17.6351 60.7881 16.7758C60.7881 15.9138 60.9482 15.1768 61.2686 14.5648C61.5915 13.9502 62.029 13.4802 62.5811 13.1547C63.1357 12.8291 63.7633 12.6664 64.4639 12.6664C65.1644 12.6664 65.7907 12.8291 66.3428 13.1547C66.8975 13.4802 67.335 13.9502 67.6553 14.5648C67.9782 15.1768 68.1396 15.9138 68.1396 16.7758ZM66.6826 16.7758C66.6826 16.169 66.5876 15.6573 66.3975 15.2406C66.21 14.8213 65.9495 14.5049 65.6162 14.2914C65.2829 14.0752 64.8988 13.9672 64.4639 13.9672C64.029 13.9672 63.6449 14.0752 63.3115 14.2914C62.9782 14.5049 62.7165 14.8213 62.5264 15.2406C62.3389 15.6573 62.2451 16.169 62.2451 16.7758C62.2451 17.3825 62.3389 17.8955 62.5264 18.3148C62.7165 18.7315 62.9782 19.0479 63.3115 19.264C63.6449 19.4776 64.029 19.5844 64.4639 19.5844C64.8988 19.5844 65.2829 19.4776 65.6162 19.264C65.9495 19.0479 66.21 18.7315 66.3975 18.3148C66.5876 17.8955 66.6826 17.3825 66.6826 16.7758ZM69.4473 23.0258V14.7758H70.8379V15.7679H70.9199C70.9928 15.6221 71.0957 15.4672 71.2285 15.3031C71.3613 15.1364 71.541 14.9945 71.7676 14.8773C71.9941 14.7575 72.2832 14.6976 72.6348 14.6976C73.0983 14.6976 73.5163 14.8161 73.8887 15.0531C74.2637 15.2875 74.5605 15.6351 74.7793 16.0961C75.0007 16.5544 75.1113 17.1169 75.1113 17.7836C75.1113 18.4424 75.0033 19.0023 74.7871 19.4633C74.571 19.9242 74.2767 20.2758 73.9043 20.5179C73.5319 20.7601 73.11 20.8812 72.6387 20.8812C72.2949 20.8812 72.0098 20.8239 71.7832 20.7094C71.5566 20.5948 71.3743 20.4567 71.2363 20.2953C71.1009 20.1312 70.9954 19.9763 70.9199 19.8304H70.8613V23.0258H69.4473ZM70.834 17.7758C70.834 18.1638 70.8887 18.5036 70.998 18.7953C71.11 19.087 71.2702 19.3148 71.4785 19.4789C71.6895 19.6403 71.9447 19.7211 72.2441 19.7211C72.5566 19.7211 72.8184 19.6377 73.0293 19.4711C73.2402 19.3018 73.3991 19.0713 73.5059 18.7797C73.6152 18.4854 73.6699 18.1508 73.6699 17.7758C73.6699 17.4034 73.6165 17.0726 73.5098 16.7836C73.403 16.4945 73.2441 16.2679 73.0332 16.1039C72.8223 15.9398 72.5592 15.8578 72.2441 15.8578C71.9421 15.8578 71.6855 15.9372 71.4746 16.0961C71.2637 16.2549 71.1035 16.4776 70.9941 16.764C70.8874 17.0505 70.834 17.3877 70.834 17.7758ZM78.9785 20.8929C78.377 20.8929 77.8574 20.7679 77.4199 20.5179C76.985 20.2653 76.6504 19.9086 76.416 19.4476C76.1816 18.9841 76.0645 18.4385 76.0645 17.8109C76.0645 17.1937 76.1816 16.6521 76.416 16.1859C76.653 15.7172 76.9837 15.3526 77.4082 15.0922C77.8327 14.8291 78.3314 14.6976 78.9043 14.6976C79.2741 14.6976 79.623 14.7575 79.9512 14.8773C80.2819 14.9945 80.5736 15.1768 80.8262 15.4242C81.0814 15.6716 81.2819 15.9867 81.4277 16.3695C81.5736 16.7497 81.6465 17.2028 81.6465 17.7289V18.1625H76.7285V17.2094H80.291C80.2884 16.9385 80.2298 16.6976 80.1152 16.4867C80.0007 16.2732 79.8405 16.1052 79.6348 15.9828C79.4316 15.8604 79.1947 15.7992 78.9238 15.7992C78.6348 15.7992 78.3809 15.8695 78.1621 16.0101C77.9434 16.1482 77.7728 16.3304 77.6504 16.557C77.5306 16.781 77.4694 17.0271 77.4668 17.2953V18.1273C77.4668 18.4763 77.5306 18.7758 77.6582 19.0258C77.7858 19.2732 77.9642 19.4633 78.1934 19.5961C78.4225 19.7263 78.6908 19.7914 78.998 19.7914C79.2038 19.7914 79.39 19.7627 79.5566 19.7054C79.7233 19.6455 79.8678 19.5583 79.9902 19.4437C80.1126 19.3291 80.2051 19.1872 80.2676 19.0179L81.5879 19.1664C81.5046 19.5153 81.3457 19.82 81.1113 20.0804C80.8796 20.3383 80.5827 20.5388 80.2207 20.682C79.8587 20.8226 79.4447 20.8929 78.9785 20.8929ZM84.2568 17.2601V20.7758H82.8428V14.7758H84.1943V15.7953H84.2646C84.4027 15.4594 84.6227 15.1924 84.9248 14.9945C85.2295 14.7966 85.6058 14.6976 86.0537 14.6976C86.4678 14.6976 86.8285 14.7862 87.1357 14.9633C87.4456 15.1403 87.6852 15.3969 87.8545 15.7328C88.0264 16.0687 88.111 16.4763 88.1084 16.9554V20.7758H86.6943V17.1742C86.6943 16.7732 86.5902 16.4594 86.3818 16.2328C86.1761 16.0062 85.891 15.8929 85.5264 15.8929C85.279 15.8929 85.0589 15.9476 84.8662 16.057C84.6761 16.1638 84.5264 16.3187 84.417 16.5219C84.3102 16.725 84.2568 16.9711 84.2568 17.2601ZM90.6357 20.7758H89.0889L91.9053 12.7758H93.6943L96.5146 20.7758H94.9678L92.8311 14.4164H92.7686L90.6357 20.7758ZM90.6865 17.639H94.9053V18.8031H90.6865V17.639ZM99.0176 12.7758V20.7758H97.5684V12.7758H99.0176Z" fill="black"/>
<path d="M40.8873 44C40.7479 44 40.6339 43.9557 40.5453 43.867C40.4566 43.7783 40.4123 43.6643 40.4123 43.525V33.683H37.0303C36.8909 33.683 36.7769 33.6387 36.6883 33.55C36.5996 33.4487 36.5553 33.3347 36.5553 33.208V31.175C36.5553 31.0357 36.5996 30.9217 36.6883 30.833C36.7769 30.7443 36.8909 30.7 37.0303 30.7H47.2523C47.3916 30.7 47.5056 30.7443 47.5943 30.833C47.6829 30.9217 47.7273 31.0357 47.7273 31.175V33.208C47.7273 33.3347 47.6829 33.4487 47.5943 33.55C47.5056 33.6387 47.3916 33.683 47.2523 33.683H43.8703V43.525C43.8703 43.6643 43.8259 43.7783 43.7373 43.867C43.6486 43.9557 43.5346 44 43.3953 44H40.8873ZM54.6839 44.19C53.5186 44.19 52.5053 44 51.6439 43.62C50.7826 43.24 50.1113 42.67 49.6299 41.91C49.1486 41.1373 48.8826 40.1747 48.8319 39.022C48.8193 38.4773 48.8129 37.9327 48.8129 37.388C48.8129 36.8433 48.8193 36.2923 48.8319 35.735C48.8826 34.595 49.1486 33.6387 49.6299 32.866C50.1239 32.0807 50.8016 31.4917 51.6629 31.099C52.5243 30.7063 53.5313 30.51 54.6839 30.51C55.8239 30.51 56.8246 30.7063 57.6859 31.099C58.5599 31.4917 59.2439 32.0807 59.7379 32.866C60.2319 33.6387 60.4979 34.595 60.5359 35.735C60.5613 36.2923 60.5739 36.8433 60.5739 37.388C60.5739 37.9327 60.5613 38.4773 60.5359 39.022C60.4853 40.1747 60.2193 41.1373 59.7379 41.91C59.2566 42.67 58.5853 43.24 57.7239 43.62C56.8626 44 55.8493 44.19 54.6839 44.19ZM54.6839 41.454C55.3553 41.454 55.8999 41.2513 56.3179 40.846C56.7486 40.4407 56.9766 39.7947 57.0019 38.908C57.0273 38.3507 57.0399 37.825 57.0399 37.331C57.0399 36.837 57.0273 36.324 57.0019 35.792C56.9766 35.1967 56.8626 34.7153 56.6599 34.348C56.4699 33.968 56.2039 33.6893 55.8619 33.512C55.5199 33.3347 55.1273 33.246 54.6839 33.246C54.2533 33.246 53.8669 33.3347 53.5249 33.512C53.1829 33.6893 52.9106 33.968 52.7079 34.348C52.5053 34.7153 52.3913 35.1967 52.3659 35.792C52.3533 36.324 52.3469 36.837 52.3469 37.331C52.3469 37.825 52.3533 38.3507 52.3659 38.908C52.4039 39.7947 52.6319 40.4407 53.0499 40.846C53.4679 41.2513 54.0126 41.454 54.6839 41.454ZM63.2513 44C63.112 44 62.998 43.9557 62.9093 43.867C62.8206 43.7783 62.7763 43.6643 62.7763 43.525V31.175C62.7763 31.0357 62.8206 30.9217 62.9093 30.833C62.998 30.7443 63.112 30.7 63.2513 30.7H68.5713C69.6226 30.7 70.5346 30.8647 71.3073 31.194C72.0926 31.5107 72.7006 31.992 73.1313 32.638C73.5746 33.284 73.7963 34.101 73.7963 35.089C73.7963 36.0643 73.5746 36.8687 73.1313 37.502C72.7006 38.1353 72.0926 38.604 71.3073 38.908C70.5346 39.212 69.6226 39.364 68.5713 39.364H66.3103V43.525C66.3103 43.6643 66.2596 43.7783 66.1583 43.867C66.0696 43.9557 65.9556 44 65.8163 44H63.2513ZM66.2533 36.742H68.4763C69.021 36.742 69.4516 36.6027 69.7683 36.324C70.0976 36.0453 70.2623 35.621 70.2623 35.051C70.2623 34.5697 70.123 34.1643 69.8443 33.835C69.5656 33.5057 69.1096 33.341 68.4763 33.341H66.2533V36.742ZM79.7279 44C79.5885 44 79.4745 43.9557 79.3859 43.867C79.2972 43.7783 79.2529 43.6643 79.2529 43.525V31.175C79.2529 31.0357 79.2972 30.9217 79.3859 30.833C79.4745 30.7443 79.5885 30.7 79.7279 30.7H85.0479C86.0992 30.7 87.0112 30.8647 87.7839 31.194C88.5692 31.5107 89.1772 31.992 89.6079 32.638C90.0512 33.284 90.2729 34.101 90.2729 35.089C90.2729 36.0643 90.0512 36.8687 89.6079 37.502C89.1772 38.1353 88.5692 38.604 87.7839 38.908C87.0112 39.212 86.0992 39.364 85.0479 39.364H82.7869V43.525C82.7869 43.6643 82.7362 43.7783 82.6349 43.867C82.5462 43.9557 82.4322 44 82.2929 44H79.7279ZM82.7299 36.742H84.9529C85.4975 36.742 85.9282 36.6027 86.2449 36.324C86.5742 36.0453 86.7389 35.621 86.7389 35.051C86.7389 34.5697 86.5995 34.1643 86.3209 33.835C86.0422 33.5057 85.5862 33.341 84.9529 33.341H82.7299V36.742ZM92.5677 44C92.4284 44 92.3144 43.9557 92.2257 43.867C92.137 43.7783 92.0927 43.6643 92.0927 43.525V31.175C92.0927 31.0357 92.137 30.9217 92.2257 30.833C92.3144 30.7443 92.4284 30.7 92.5677 30.7H95.1137C95.253 30.7 95.367 30.7443 95.4557 30.833C95.5444 30.9217 95.5887 31.0357 95.5887 31.175V43.525C95.5887 43.6643 95.5444 43.7783 95.4557 43.867C95.367 43.9557 95.253 44 95.1137 44H92.5677ZM103.706 44.19C102.503 44.19 101.47 43.9937 100.609 43.601C99.7602 43.2083 99.0952 42.632 98.6139 41.872C98.1452 41.112 97.8855 40.1683 97.8349 39.041C97.8222 38.5217 97.8159 37.9643 97.8159 37.369C97.8159 36.7737 97.8222 36.2037 97.8349 35.659C97.8855 34.557 98.1515 33.626 98.6329 32.866C99.1142 32.0933 99.7855 31.5107 100.647 31.118C101.508 30.7127 102.528 30.51 103.706 30.51C104.542 30.51 105.315 30.6177 106.024 30.833C106.733 31.0357 107.354 31.3397 107.886 31.745C108.418 32.1377 108.83 32.619 109.121 33.189C109.425 33.7463 109.583 34.3797 109.596 35.089C109.609 35.203 109.571 35.298 109.482 35.374C109.406 35.45 109.311 35.488 109.197 35.488H106.632C106.467 35.488 106.341 35.4563 106.252 35.393C106.163 35.317 106.087 35.184 106.024 34.994C105.847 34.3227 105.555 33.8667 105.15 33.626C104.757 33.3727 104.27 33.246 103.687 33.246C102.99 33.246 102.439 33.4423 102.034 33.835C101.629 34.215 101.407 34.8547 101.369 35.754C101.331 36.7927 101.331 37.8567 101.369 38.946C101.407 39.8453 101.629 40.4913 102.034 40.884C102.439 41.264 102.99 41.454 103.687 41.454C104.27 41.454 104.764 41.3273 105.169 41.074C105.574 40.8207 105.859 40.3647 106.024 39.706C106.075 39.516 106.144 39.3893 106.233 39.326C106.334 39.25 106.467 39.212 106.632 39.212H109.197C109.311 39.212 109.406 39.25 109.482 39.326C109.571 39.402 109.609 39.497 109.596 39.611C109.583 40.3203 109.425 40.96 109.121 41.53C108.83 42.0873 108.418 42.5687 107.886 42.974C107.354 43.3667 106.733 43.6707 106.024 43.886C105.315 44.0887 104.542 44.19 103.706 44.19ZM112.069 44C111.929 44 111.815 43.9557 111.727 43.867C111.638 43.7783 111.594 43.6643 111.594 43.525V31.175C111.594 31.0357 111.638 30.9217 111.727 30.833C111.815 30.7443 111.929 30.7 112.069 30.7H114.463C114.602 30.7 114.716 30.7443 114.805 30.833C114.893 30.9217 114.938 31.0357 114.938 31.175V35.393L118.453 31.061C118.503 30.985 118.586 30.909 118.7 30.833C118.826 30.7443 118.991 30.7 119.194 30.7H121.93C122.044 30.7 122.139 30.7443 122.215 30.833C122.291 30.909 122.329 30.9977 122.329 31.099C122.329 31.1877 122.303 31.2637 122.253 31.327L117.712 37.065L122.614 43.373C122.664 43.4237 122.69 43.4997 122.69 43.601C122.69 43.7023 122.645 43.7973 122.557 43.886C122.481 43.962 122.392 44 122.291 44H119.46C119.232 44 119.054 43.9493 118.928 43.848C118.814 43.7467 118.738 43.6707 118.7 43.62L114.938 38.927V43.525C114.938 43.6643 114.893 43.7783 114.805 43.867C114.716 43.9557 114.602 44 114.463 44H112.069Z" fill="black"/>
</g>
<defs>
<clipPath id="clip0_14393_44866">
<rect width="160" height="48" fill="white"/>
</clipPath>
</defs>
</svg>
