<svg width="160" height="48" viewBox="0 0 160 48" fill="none" xmlns="http://www.w3.org/2000/svg">
<g clip-path="url(#clip0_14393_44867)">
<path d="M137.643 47.0737C132.109 49.1935 129.858 47.1853 129.858 45.9178C131.819 45.7544 136.504 45.4884 137.643 47.0737ZM144.668 45.3405C143.293 46.3397 141.605 46.8233 139.903 46.7052C138.202 46.5871 136.598 45.875 135.378 44.6958C137.267 44.1769 142.424 43.5619 144.668 45.3405ZM135.305 41.2203C135.515 43.8577 132.784 45.3405 129.836 45.5546C130.374 42.9016 133.127 41.7172 135.305 41.2203ZM140.593 38.7892C140.905 39.9165 140.476 42.9769 136.235 44.1911C136.417 42.1245 137.528 39.4339 140.593 38.7892ZM149.003 41.8573C147.916 42.9305 146.482 43.5925 144.952 43.7278C143.422 43.8632 141.892 43.4634 140.63 42.598C142.329 41.7315 146.41 40.5613 149.003 41.8573ZM144.522 35.7522C145.103 36.8627 145.226 40.0268 141.471 41.9312C141.254 39.8945 142.081 36.4112 144.522 35.7522ZM153.811 36.9821C153.458 37.67 152.967 38.2797 152.368 38.7742C151.768 39.2686 151.074 39.6374 150.327 39.8582C149.586 40.0732 148.808 40.1335 148.043 40.0352C147.278 39.937 146.541 39.6823 145.881 39.2873C148.248 37.0858 152.025 36.2413 153.811 36.9821ZM148.198 31.0832C149.882 33.9892 148.102 37.3077 146.251 38.6711C145.427 35.9702 146.184 33.0266 148.198 31.0832ZM156.935 30.9574C157.138 35.4707 152.374 35.2255 150.136 35.2554C150.841 34.307 154.755 30.8692 156.935 30.9574ZM151.06 26.7412C151.945 27.7051 153.273 31.4102 150.332 34.4329C149.41 32.2469 149.208 28.8908 151.06 26.7412ZM159.433 24.7408C159.586 28.3862 156.484 30.2309 153.492 30.2024C154.392 28.4458 156.797 25.0599 159.433 24.7408ZM153.158 22.2292C155.141 23.3838 154.915 27.1122 153.746 29.053C152.431 27.2458 151.451 25.0002 153.158 22.2292ZM159.563 18.8134C160.544 22.1332 157.662 24.3788 155.932 24.5708C156.375 22.9855 156.955 20.1769 159.563 18.8134ZM153.521 17.7094C155.708 18.7926 156.744 21.3834 155.925 23.7185C154.4 22.5029 152.563 19.9317 153.521 17.7094ZM159.666 13.693C161.016 17.7315 157.915 19.0508 156.761 19.3751C156.898 17.6575 158.003 14.2339 159.666 13.693ZM153.608 12.6331C154.494 12.8861 157.022 14.9384 156.564 18.6136C154.901 17.6874 152.881 15.923 153.608 12.6331ZM158.75 7.57362C160.261 12.5371 157.74 14.5751 156.913 14.9812C156.782 13.4115 156.622 9.744 158.75 7.57362ZM153.158 7.69816C154.741 8.13535 156.738 11.0102 156.644 13.7747C155.075 13.0638 152.729 10.1072 153.158 7.69816ZM153.63 0C157.305 3.75697 157.82 6.72 156.746 10.3732C155.082 8.89168 153.753 4.44584 153.63 0ZM22.3567 47.0737C27.8912 49.1935 30.1417 47.1853 30.1417 45.9178C28.181 45.7544 23.4964 45.4884 22.3567 47.0737ZM15.3312 45.3405C16.7055 46.3397 18.394 46.8233 20.0954 46.7052C21.7968 46.5871 23.4005 45.875 24.6203 44.6958C22.7318 44.1769 17.5751 43.5619 15.3312 45.3405ZM24.6938 41.2203C24.4839 43.8577 27.2144 45.3405 30.1626 45.5546C29.6249 42.9016 26.8721 41.7172 24.6938 41.2203ZM19.4072 38.7892C19.0951 39.9165 19.5239 42.9769 23.7653 44.1911C23.583 42.1245 22.4721 39.4339 19.4072 38.7892ZM10.9967 41.8573C12.0843 42.9305 13.5179 43.5925 15.048 43.7278C16.5781 43.8632 18.1077 43.4634 19.3705 42.598C17.6708 41.7315 13.5895 40.5613 10.9967 41.8573ZM15.478 35.7522C14.8971 36.8627 14.7738 40.0268 18.5285 41.9312C18.7462 39.8945 17.9187 36.4112 15.478 35.7522ZM6.18887 36.9821C6.54234 37.67 7.0335 38.2797 7.63252 38.7742C8.23154 39.2686 8.92591 39.6374 9.67346 39.8582C10.414 40.0732 11.1917 40.1335 11.9571 40.0352C12.7225 39.937 13.4588 39.6823 14.1194 39.2873C11.7521 37.0858 7.9751 36.2413 6.18887 36.9821ZM11.802 31.0832C10.118 33.9892 11.8977 37.3077 13.7495 38.6711C14.5731 35.9702 13.8177 33.0266 11.8033 31.0832H11.802ZM3.06493 30.9574C2.86165 35.4707 7.62624 35.2255 9.86362 35.2554C9.15936 34.307 5.2446 30.8692 3.06493 30.9574ZM8.94034 26.7412C8.0551 27.7051 6.72657 31.4102 9.66821 34.4329C10.5902 32.2469 10.7921 28.8908 8.94034 26.7412ZM0.567883 24.7408C0.415752 28.3862 3.51739 30.2309 6.50887 30.2024C5.60919 28.4458 3.20395 25.0599 0.567883 24.7408ZM6.84329 22.2292C4.86034 23.3838 5.08592 27.1122 6.25575 29.053C7.56985 27.2458 8.55083 25.0002 6.84329 22.2292ZM0.436736 18.8134C-0.544248 22.1332 2.33838 24.3788 4.06821 24.5708C3.62493 22.9855 3.04395 20.1769 0.435424 18.8134H0.436736ZM6.4787 17.7094C4.29247 18.7926 3.25641 21.3834 4.07477 23.7185C5.60001 22.5029 7.43739 19.9317 6.4787 17.7094ZM0.334441 13.693C-1.01638 17.7315 2.08526 19.0508 3.23936 19.3751C3.10165 17.6575 1.99739 14.2339 0.334441 13.693ZM6.39215 12.6331C5.50559 12.8861 2.97837 14.9384 3.43608 18.6136C5.09903 17.6874 7.1187 15.923 6.39215 12.6331ZM1.24985 7.57362C-0.260969 12.5371 2.25969 14.5751 3.08723 14.9812C3.21838 13.4115 3.37838 9.744 1.24985 7.57362ZM6.84198 7.69816C5.25903 8.13535 3.26165 11.0102 3.35608 13.7747C4.9246 13.0638 7.27083 10.1072 6.84198 7.69816ZM6.36985 0C2.6951 3.75697 2.17969 6.72 3.25378 10.3732C4.91805 8.89168 6.24657 4.44584 6.36985 0ZM73.2249 45.4054C73.4374 45.4054 73.6026 45.2653 73.6026 45.0551V29.4097C73.6026 29.1996 73.4374 29.0595 73.2249 29.0595H67.2053C66.9928 29.0595 66.8512 29.1996 66.8512 29.4097V31.7215C66.8512 31.9317 66.9928 32.0951 67.2053 32.0951H69.9908V45.0551C69.9908 45.2653 70.1325 45.4054 70.3449 45.4054H73.2249ZM80.3541 45.6856C82.6912 45.6856 84.7449 44.4714 84.7685 42.1129C84.8158 40.3849 83.659 39.3808 82.219 38.8203L80.4721 38.1431C79.9528 37.933 79.5515 37.6294 79.5515 37.2091C79.5515 36.8588 79.7639 36.4618 80.4721 36.4618C81.1095 36.4618 81.7469 36.7888 82.5023 37.3725C82.7148 37.5126 82.88 37.536 83.0453 37.3725L84.2492 35.9715C84.3436 35.8314 84.4144 35.6445 84.2728 35.4811C83.7798 34.9126 83.1675 34.4573 82.4785 34.1468C81.7895 33.8363 81.0404 33.678 80.2833 33.683C78.0643 33.683 76.1285 34.9674 76.1285 37.2091C76.1285 38.797 77.12 39.7777 78.6308 40.3615L80.1417 40.9687C80.9207 41.2722 81.1803 41.5291 81.1803 41.9728C81.1803 42.4865 80.7554 42.72 80.118 42.72C79.2918 42.72 78.5128 42.3697 77.4977 41.6458C77.3089 41.5291 77.0964 41.459 76.9076 41.7626L75.9633 43.0703C75.798 43.3038 75.7744 43.584 75.8925 43.7475C76.8603 44.8917 78.3948 45.6856 80.3541 45.6856ZM91.2839 45.6856C92.0866 45.6856 93.3613 45.5455 93.3613 44.9617V43.0236C93.3613 42.7901 93.1725 42.6733 92.9364 42.6966C92.6295 42.72 92.4171 42.72 92.2046 42.72C91.6144 42.72 91.2131 42.3931 91.2131 41.7626V36.7187H92.9836C93.1961 36.7187 93.3377 36.5786 93.3377 36.3684V34.3135C93.3377 34.1034 93.1961 33.9632 92.9836 33.9632H91.2131V31.2778C91.2131 31.0677 91.0479 30.9276 90.8354 30.9276H87.9318C87.7194 30.9276 87.5541 31.0677 87.5541 31.2778V33.9632H86.1141C85.9017 33.9632 85.76 34.1034 85.76 34.3135V36.3684C85.76 36.5786 85.9017 36.7187 86.1141 36.7187H87.5541V42.1596C87.5541 44.8216 89.3718 45.6856 91.2839 45.6856Z" fill="black"/>
<path d="M24.312 8.77576V0.775757H27.312C27.9266 0.775757 28.4422 0.89034 28.8589 1.11951C29.2782 1.34867 29.5946 1.66378 29.8081 2.06482C30.0243 2.46326 30.1323 2.91638 30.1323 3.42419C30.1323 3.93722 30.0243 4.39294 29.8081 4.79138C29.592 5.18982 29.2729 5.50362 28.8511 5.73279C28.4292 5.95935 27.9097 6.07263 27.2925 6.07263H25.3042V4.88123H27.0972C27.4565 4.88123 27.7508 4.81873 27.98 4.69373C28.2091 4.56873 28.3784 4.39685 28.4878 4.1781C28.5998 3.95935 28.6558 3.70805 28.6558 3.42419C28.6558 3.14034 28.5998 2.89034 28.4878 2.67419C28.3784 2.45805 28.2078 2.29008 27.9761 2.17029C27.7469 2.04789 27.4513 1.98669 27.0894 1.98669H25.7612V8.77576H24.312ZM31.3286 8.77576V2.77576H32.6997V3.77576H32.7622C32.8716 3.4294 33.0591 3.16248 33.3247 2.97498C33.5929 2.78487 33.8989 2.68982 34.2427 2.68982C34.3208 2.68982 34.408 2.69373 34.5044 2.70154C34.6034 2.70675 34.6854 2.71586 34.7505 2.72888V4.02966C34.6906 4.00883 34.5955 3.9906 34.4653 3.97498C34.3377 3.95675 34.214 3.94763 34.0942 3.94763C33.8364 3.94763 33.6047 4.00362 33.3989 4.1156C33.1958 4.22498 33.0356 4.37732 32.9185 4.57263C32.8013 4.76794 32.7427 4.9932 32.7427 5.24841V8.77576H31.3286ZM38.0601 8.89294C37.4741 8.89294 36.9663 8.76404 36.5366 8.50623C36.1069 8.24841 35.7736 7.88774 35.5366 7.42419C35.3022 6.96065 35.1851 6.41899 35.1851 5.79919C35.1851 5.1794 35.3022 4.63643 35.5366 4.17029C35.7736 3.70414 36.1069 3.34216 36.5366 3.08435C36.9663 2.82654 37.4741 2.69763 38.0601 2.69763C38.646 2.69763 39.1538 2.82654 39.5835 3.08435C40.0132 3.34216 40.3452 3.70414 40.5796 4.17029C40.8166 4.63643 40.9351 5.1794 40.9351 5.79919C40.9351 6.41899 40.8166 6.96065 40.5796 7.42419C40.3452 7.88774 40.0132 8.24841 39.5835 8.50623C39.1538 8.76404 38.646 8.89294 38.0601 8.89294ZM38.0679 7.76013C38.3856 7.76013 38.6512 7.67289 38.8647 7.49841C39.0783 7.32133 39.2371 7.08435 39.3413 6.78748C39.4481 6.4906 39.5015 6.15987 39.5015 5.79529C39.5015 5.4281 39.4481 5.09607 39.3413 4.79919C39.2371 4.49972 39.0783 4.26143 38.8647 4.08435C38.6512 3.90727 38.3856 3.81873 38.0679 3.81873C37.7424 3.81873 37.4715 3.90727 37.2554 4.08435C37.0418 4.26143 36.8817 4.49972 36.7749 4.79919C36.6707 5.09607 36.6187 5.4281 36.6187 5.79529C36.6187 6.15987 36.6707 6.4906 36.7749 6.78748C36.8817 7.08435 37.0418 7.32133 37.2554 7.49841C37.4715 7.67289 37.7424 7.76013 38.0679 7.76013ZM44.3618 8.88123C43.8905 8.88123 43.4686 8.76013 43.0962 8.51794C42.7238 8.27576 42.4295 7.92419 42.2134 7.46326C41.9972 7.00232 41.8892 6.44242 41.8892 5.78357C41.8892 5.1169 41.9985 4.5544 42.2173 4.09607C42.4386 3.63513 42.7368 3.28748 43.1118 3.0531C43.4868 2.81612 43.9048 2.69763 44.3657 2.69763C44.7173 2.69763 45.0063 2.75753 45.2329 2.87732C45.4595 2.99451 45.6392 3.13643 45.772 3.3031C45.9048 3.46716 46.0076 3.62211 46.0806 3.76794H46.1392V0.775757H47.5571V8.77576H46.1665V7.83044H46.0806C46.0076 7.97628 45.9022 8.13123 45.7642 8.29529C45.6261 8.45675 45.4438 8.59477 45.2173 8.70935C44.9907 8.82393 44.7056 8.88123 44.3618 8.88123ZM44.7563 7.72107C45.0558 7.72107 45.311 7.64034 45.522 7.47888C45.7329 7.31482 45.8931 7.08695 46.0024 6.79529C46.1118 6.50362 46.1665 6.16378 46.1665 5.77576C46.1665 5.38774 46.1118 5.0505 46.0024 4.76404C45.8957 4.47758 45.7368 4.25492 45.5259 4.09607C45.3175 3.93721 45.061 3.85779 44.7563 3.85779C44.4412 3.85779 44.1782 3.93982 43.9673 4.10388C43.7563 4.26794 43.5975 4.49451 43.4907 4.78357C43.384 5.07263 43.3306 5.40336 43.3306 5.77576C43.3306 6.15076 43.384 6.48539 43.4907 6.77966C43.6001 7.07133 43.7603 7.3018 43.9712 7.47107C44.1847 7.63774 44.4465 7.72107 44.7563 7.72107ZM52.8882 6.25232V2.77576H54.3022V8.77576H52.9312V7.70935H52.8687C52.7332 8.04529 52.5106 8.32003 52.2007 8.53357C51.8934 8.74711 51.5145 8.85388 51.064 8.85388C50.6707 8.85388 50.3231 8.76664 50.021 8.59216C49.7215 8.41508 49.4871 8.15857 49.3179 7.82263C49.1486 7.48409 49.064 7.07524 49.064 6.59607V2.77576H50.478V6.37732C50.478 6.75753 50.5822 7.05961 50.7905 7.28357C50.9989 7.50753 51.2723 7.61951 51.6108 7.61951C51.8192 7.61951 52.021 7.56873 52.2163 7.46716C52.4116 7.3656 52.5718 7.21456 52.6968 7.01404C52.8244 6.81091 52.8882 6.55701 52.8882 6.25232ZM58.3735 8.89294C57.7746 8.89294 57.2603 8.76143 56.8306 8.49841C56.4035 8.23539 56.0741 7.87211 55.8423 7.40857C55.6131 6.94242 55.4985 6.40597 55.4985 5.79919C55.4985 5.18982 55.6157 4.65206 55.8501 4.18591C56.0845 3.71716 56.4152 3.35258 56.8423 3.09216C57.272 2.82914 57.7798 2.69763 58.3657 2.69763C58.8527 2.69763 59.2837 2.78748 59.6587 2.96716C60.0363 3.14425 60.3371 3.39555 60.561 3.72107C60.785 4.04399 60.9126 4.42159 60.9438 4.85388H59.5923C59.5376 4.56482 59.4074 4.32393 59.2017 4.13123C58.9985 3.93591 58.7264 3.83826 58.3853 3.83826C58.0962 3.83826 57.8423 3.91638 57.6235 4.07263C57.4048 4.22628 57.2342 4.44763 57.1118 4.73669C56.992 5.02576 56.9321 5.37211 56.9321 5.77576C56.9321 6.18461 56.992 6.53617 57.1118 6.83044C57.2316 7.12211 57.3996 7.34737 57.6157 7.50623C57.8345 7.66248 58.091 7.7406 58.3853 7.7406C58.5936 7.7406 58.7798 7.70154 58.9438 7.62341C59.1105 7.54268 59.2498 7.4268 59.3618 7.27576C59.4738 7.12472 59.5506 6.94112 59.5923 6.72498H60.9438C60.91 7.14945 60.785 7.52576 60.5688 7.85388C60.3527 8.1794 60.0584 8.43461 59.686 8.61951C59.3136 8.8018 58.8761 8.89294 58.3735 8.89294ZM65.1011 2.77576V3.86951H61.6519V2.77576H65.1011ZM62.5034 1.33826H63.9175V6.97107C63.9175 7.16117 63.9461 7.30701 64.0034 7.40857C64.0633 7.50753 64.1414 7.57524 64.2378 7.61169C64.3341 7.64815 64.4409 7.66638 64.5581 7.66638C64.6466 7.66638 64.7274 7.65987 64.8003 7.64685C64.8758 7.63383 64.9331 7.62211 64.9722 7.61169L65.2104 8.71716C65.1349 8.7432 65.0269 8.77185 64.8862 8.8031C64.7482 8.83435 64.5789 8.85258 64.3784 8.85779C64.0243 8.8682 63.7052 8.81482 63.4214 8.69763C63.1375 8.57784 62.9123 8.39294 62.7456 8.14294C62.5815 7.89294 62.5008 7.58044 62.5034 7.20544V1.33826ZM71.6294 8.89294C71.0435 8.89294 70.5356 8.76404 70.106 8.50623C69.6763 8.24841 69.3429 7.88774 69.106 7.42419C68.8716 6.96065 68.7544 6.41899 68.7544 5.79919C68.7544 5.1794 68.8716 4.63643 69.106 4.17029C69.3429 3.70414 69.6763 3.34216 70.106 3.08435C70.5356 2.82654 71.0435 2.69763 71.6294 2.69763C72.2153 2.69763 72.7231 2.82654 73.1528 3.08435C73.5825 3.34216 73.9146 3.70414 74.1489 4.17029C74.3859 4.63643 74.5044 5.1794 74.5044 5.79919C74.5044 6.41899 74.3859 6.96065 74.1489 7.42419C73.9146 7.88774 73.5825 8.24841 73.1528 8.50623C72.7231 8.76404 72.2153 8.89294 71.6294 8.89294ZM71.6372 7.76013C71.9549 7.76013 72.2205 7.67289 72.4341 7.49841C72.6476 7.32133 72.8065 7.08435 72.9106 6.78748C73.0174 6.4906 73.0708 6.15987 73.0708 5.79529C73.0708 5.4281 73.0174 5.09607 72.9106 4.79919C72.8065 4.49972 72.6476 4.26143 72.4341 4.08435C72.2205 3.90727 71.9549 3.81873 71.6372 3.81873C71.3117 3.81873 71.0409 3.90727 70.8247 4.08435C70.6112 4.26143 70.451 4.49972 70.3442 4.79919C70.2401 5.09607 70.188 5.4281 70.188 5.79529C70.188 6.15987 70.2401 6.4906 70.3442 6.78748C70.451 7.08435 70.6112 7.32133 70.8247 7.49841C71.0409 7.67289 71.3117 7.76013 71.6372 7.76013ZM78.7437 2.77576V3.86951H75.1968V2.77576H78.7437ZM76.0835 8.77576V2.20935C76.0835 1.8057 76.1668 1.46977 76.3335 1.20154C76.5028 0.933309 76.7293 0.732788 77.0132 0.599975C77.297 0.467163 77.6121 0.400756 77.9585 0.400756C78.2033 0.400756 78.4207 0.420288 78.6108 0.459351C78.8009 0.498413 78.9416 0.533569 79.0327 0.564819L78.7515 1.65857C78.6916 1.64034 78.616 1.62211 78.5249 1.60388C78.4338 1.58305 78.3322 1.57263 78.2202 1.57263C77.9572 1.57263 77.771 1.63643 77.6616 1.76404C77.5549 1.88904 77.5015 2.06873 77.5015 2.3031V8.77576H76.0835ZM85.5757 2.77576V3.86951H82.1265V2.77576H85.5757ZM82.978 1.33826H84.3921V6.97107C84.3921 7.16117 84.4207 7.30701 84.478 7.40857C84.5379 7.50753 84.616 7.57524 84.7124 7.61169C84.8088 7.64815 84.9155 7.66638 85.0327 7.66638C85.1213 7.66638 85.202 7.65987 85.2749 7.64685C85.3504 7.63383 85.4077 7.62211 85.4468 7.61169L85.6851 8.71716C85.6095 8.7432 85.5015 8.77185 85.3608 8.8031C85.2228 8.83435 85.0535 8.85258 84.853 8.85779C84.4989 8.8682 84.1799 8.81482 83.896 8.69763C83.6121 8.57784 83.3869 8.39294 83.2202 8.14294C83.0562 7.89294 82.9754 7.58044 82.978 7.20544V1.33826ZM88.3013 5.26013V8.77576H86.8872V0.775757H88.27V3.79529H88.3403C88.481 3.45675 88.6984 3.18982 88.9927 2.99451C89.2896 2.79659 89.6672 2.69763 90.1255 2.69763C90.5422 2.69763 90.9054 2.78487 91.2153 2.95935C91.5252 3.13383 91.7648 3.38904 91.9341 3.72498C92.106 4.06091 92.1919 4.47107 92.1919 4.95544V8.77576H90.7778V5.17419C90.7778 4.77055 90.6737 4.45675 90.4653 4.23279C90.2596 4.00623 89.9705 3.89294 89.5981 3.89294C89.3481 3.89294 89.1242 3.94763 88.9263 4.05701C88.731 4.16378 88.5773 4.31873 88.4653 4.52185C88.356 4.72498 88.3013 4.97107 88.3013 5.26013ZM96.2896 8.89294C95.688 8.89294 95.1685 8.76794 94.731 8.51794C94.2961 8.26534 93.9614 7.90857 93.7271 7.44763C93.4927 6.98409 93.3755 6.43852 93.3755 5.81091C93.3755 5.19373 93.4927 4.65206 93.7271 4.18591C93.964 3.71716 94.2948 3.35258 94.7192 3.09216C95.1437 2.82914 95.6424 2.69763 96.2153 2.69763C96.5851 2.69763 96.9341 2.75753 97.2622 2.87732C97.5929 2.99451 97.8846 3.1768 98.1372 3.42419C98.3924 3.67159 98.5929 3.98669 98.7388 4.36951C98.8846 4.74972 98.9575 5.20284 98.9575 5.72888V6.16248H94.0396V5.20935H97.6021C97.5994 4.93852 97.5409 4.69763 97.4263 4.48669C97.3117 4.27315 97.1515 4.10518 96.9458 3.98279C96.7427 3.86039 96.5057 3.79919 96.2349 3.79919C95.9458 3.79919 95.6919 3.86951 95.4731 4.01013C95.2544 4.14815 95.0838 4.33044 94.9614 4.55701C94.8416 4.78096 94.7804 5.02706 94.7778 5.29529V6.12732C94.7778 6.47628 94.8416 6.77576 94.9692 7.02576C95.0968 7.27315 95.2752 7.46326 95.5044 7.59607C95.7336 7.72628 96.0018 7.79138 96.3091 7.79138C96.5148 7.79138 96.701 7.76274 96.8677 7.70544C97.0343 7.64555 97.1789 7.55831 97.3013 7.44373C97.4237 7.32914 97.5161 7.18722 97.5786 7.01794L98.8989 7.16638C98.8156 7.51534 98.6567 7.82003 98.4224 8.08044C98.1906 8.33826 97.8937 8.53878 97.5317 8.68201C97.1698 8.82263 96.7557 8.89294 96.2896 8.89294ZM102.882 8.77576V2.77576H104.234V3.79529H104.304C104.429 3.45154 104.636 3.18331 104.925 2.9906C105.214 2.79529 105.559 2.69763 105.96 2.69763C106.367 2.69763 106.709 2.79659 106.988 2.99451C107.269 3.18982 107.467 3.45675 107.582 3.79529H107.644C107.777 3.46195 108.001 3.19633 108.316 2.99841C108.634 2.79789 109.01 2.69763 109.445 2.69763C109.997 2.69763 110.447 2.87211 110.796 3.22107C111.145 3.57003 111.32 4.07914 111.32 4.74841V8.77576H109.902V4.96716C109.902 4.59477 109.803 4.32263 109.605 4.15076C109.407 3.97628 109.165 3.88904 108.878 3.88904C108.537 3.88904 108.27 3.99581 108.078 4.20935C107.888 4.42029 107.792 4.69503 107.792 5.03357V8.77576H106.406V4.90857C106.406 4.59867 106.312 4.35128 106.125 4.16638C105.94 3.98149 105.697 3.88904 105.398 3.88904C105.195 3.88904 105.01 3.94112 104.843 4.04529C104.677 4.14685 104.544 4.29138 104.445 4.47888C104.346 4.66378 104.296 4.87992 104.296 5.12732V8.77576H102.882ZM115.372 8.89294C114.786 8.89294 114.278 8.76404 113.848 8.50623C113.418 8.24841 113.085 7.88774 112.848 7.42419C112.614 6.96065 112.497 6.41899 112.497 5.79919C112.497 5.1794 112.614 4.63643 112.848 4.17029C113.085 3.70414 113.418 3.34216 113.848 3.08435C114.278 2.82654 114.786 2.69763 115.372 2.69763C115.958 2.69763 116.465 2.82654 116.895 3.08435C117.325 3.34216 117.657 3.70414 117.891 4.17029C118.128 4.63643 118.247 5.1794 118.247 5.79919C118.247 6.41899 118.128 6.96065 117.891 7.42419C117.657 7.88774 117.325 8.24841 116.895 8.50623C116.465 8.76404 115.958 8.89294 115.372 8.89294ZM115.379 7.76013C115.697 7.76013 115.963 7.67289 116.176 7.49841C116.39 7.32133 116.549 7.08435 116.653 6.78748C116.76 6.4906 116.813 6.15987 116.813 5.79529C116.813 5.4281 116.76 5.09607 116.653 4.79919C116.549 4.49972 116.39 4.26143 116.176 4.08435C115.963 3.90727 115.697 3.81873 115.379 3.81873C115.054 3.81873 114.783 3.90727 114.567 4.08435C114.353 4.26143 114.193 4.49972 114.086 4.79919C113.982 5.09607 113.93 5.4281 113.93 5.79529C113.93 6.15987 113.982 6.4906 114.086 6.78748C114.193 7.08435 114.353 7.32133 114.567 7.49841C114.783 7.67289 115.054 7.76013 115.379 7.76013ZM120.861 5.26013V8.77576H119.447V2.77576H120.798V3.79529H120.869C121.007 3.45935 121.227 3.19242 121.529 2.99451C121.833 2.79659 122.21 2.69763 122.658 2.69763C123.072 2.69763 123.432 2.78617 123.74 2.96326C124.05 3.14034 124.289 3.39685 124.458 3.73279C124.63 4.06873 124.715 4.47628 124.712 4.95544V8.77576H123.298V5.17419C123.298 4.77315 123.194 4.45935 122.986 4.23279C122.78 4.00623 122.495 3.89294 122.13 3.89294C121.883 3.89294 121.663 3.94763 121.47 4.05701C121.28 4.16378 121.13 4.31873 121.021 4.52185C120.914 4.72498 120.861 4.97107 120.861 5.26013ZM129.146 2.77576V3.86951H125.697V2.77576H129.146ZM126.548 1.33826H127.962V6.97107C127.962 7.16117 127.991 7.30701 128.048 7.40857C128.108 7.50753 128.186 7.57524 128.283 7.61169C128.379 7.64815 128.486 7.66638 128.603 7.66638C128.692 7.66638 128.772 7.65987 128.845 7.64685C128.921 7.63383 128.978 7.62211 129.017 7.61169L129.255 8.71716C129.18 8.7432 129.072 8.77185 128.931 8.8031C128.793 8.83435 128.624 8.85258 128.423 8.85779C128.069 8.8682 127.75 8.81482 127.466 8.69763C127.182 8.57784 126.957 8.39294 126.791 8.14294C126.626 7.89294 126.546 7.58044 126.548 7.20544V1.33826ZM131.872 5.26013V8.77576H130.458V0.775757H131.84V3.79529H131.911C132.051 3.45675 132.269 3.18982 132.563 2.99451C132.86 2.79659 133.237 2.69763 133.696 2.69763C134.112 2.69763 134.476 2.78487 134.786 2.95935C135.096 3.13383 135.335 3.38904 135.504 3.72498C135.676 4.06091 135.762 4.47107 135.762 4.95544V8.77576H134.348V5.17419C134.348 4.77055 134.244 4.45675 134.036 4.23279C133.83 4.00623 133.541 3.89294 133.168 3.89294C132.918 3.89294 132.694 3.94763 132.497 4.05701C132.301 4.16378 132.148 4.31873 132.036 4.52185C131.926 4.72498 131.872 4.97107 131.872 5.26013ZM36.4775 20.7758V12.7758H39.4775C40.0921 12.7758 40.6077 12.8903 41.0244 13.1195C41.4437 13.3487 41.7601 13.6638 41.9736 14.0648C42.1898 14.4633 42.2979 14.9164 42.2979 15.4242C42.2979 15.9372 42.1898 16.3929 41.9736 16.7914C41.7575 17.1898 41.4385 17.5036 41.0166 17.7328C40.5947 17.9594 40.0752 18.0726 39.458 18.0726H37.4697V16.8812H39.2627C39.6221 16.8812 39.9163 16.8187 40.1455 16.6937C40.3747 16.5687 40.5439 16.3969 40.6533 16.1781C40.7653 15.9594 40.8213 15.708 40.8213 15.4242C40.8213 15.1403 40.7653 14.8903 40.6533 14.6742C40.5439 14.458 40.3734 14.2901 40.1416 14.1703C39.9124 14.0479 39.6169 13.9867 39.2549 13.9867H37.9268V20.7758H36.4775ZM43.5566 20.7758V12.7758H46.5566C47.1712 12.7758 47.6868 12.8825 48.1035 13.0961C48.5228 13.3096 48.8392 13.6091 49.0527 13.9945C49.2689 14.3773 49.377 14.8239 49.377 15.3344C49.377 15.8474 49.2676 16.2927 49.0488 16.6703C48.8327 17.0453 48.5137 17.3357 48.0918 17.5414C47.6699 17.7445 47.1517 17.8461 46.5371 17.8461H44.4004V16.6429H46.3418C46.7012 16.6429 46.9954 16.5935 47.2246 16.4945C47.4538 16.3929 47.623 16.2458 47.7324 16.0531C47.8444 15.8578 47.9004 15.6182 47.9004 15.3344C47.9004 15.0505 47.8444 14.8083 47.7324 14.6078C47.6204 14.4047 47.4499 14.251 47.2207 14.1469C46.9915 14.0401 46.696 13.9867 46.334 13.9867H45.0059V20.7758H43.5566ZM47.6895 17.1508L49.6699 20.7758H48.0527L46.1074 17.1508H47.6895ZM57.8594 16.7758C57.8594 17.6377 57.6979 18.376 57.375 18.9906C57.0547 19.6026 56.6172 20.0713 56.0625 20.3969C55.5104 20.7224 54.8841 20.8851 54.1836 20.8851C53.4831 20.8851 52.8555 20.7224 52.3008 20.3969C51.7487 20.0687 51.3112 19.5987 50.9883 18.9867C50.668 18.3721 50.5078 17.6351 50.5078 16.7758C50.5078 15.9138 50.668 15.1768 50.9883 14.5648C51.3112 13.9502 51.7487 13.4802 52.3008 13.1547C52.8555 12.8291 53.4831 12.6664 54.1836 12.6664C54.8841 12.6664 55.5104 12.8291 56.0625 13.1547C56.6172 13.4802 57.0547 13.9502 57.375 14.5648C57.6979 15.1768 57.8594 15.9138 57.8594 16.7758ZM56.4023 16.7758C56.4023 16.169 56.3073 15.6573 56.1172 15.2406C55.9297 14.8213 55.6693 14.5049 55.3359 14.2914C55.0026 14.0752 54.6185 13.9672 54.1836 13.9672C53.7487 13.9672 53.3646 14.0752 53.0313 14.2914C52.6979 14.5049 52.4362 14.8213 52.2461 15.2406C52.0586 15.6573 51.9648 16.169 51.9648 16.7758C51.9648 17.3825 52.0586 17.8955 52.2461 18.3148C52.4362 18.7315 52.6979 19.0479 53.0313 19.264C53.3646 19.4776 53.7487 19.5844 54.1836 19.5844C54.6185 19.5844 55.0026 19.4776 55.3359 19.264C55.6693 19.0479 55.9297 18.7315 56.1172 18.3148C56.3073 17.8955 56.4023 17.3825 56.4023 16.7758ZM61.9404 20.7758H59.2295V12.7758H61.9951C62.7894 12.7758 63.4717 12.9359 64.042 13.2562C64.6149 13.5739 65.055 14.031 65.3623 14.6273C65.6696 15.2237 65.8232 15.9372 65.8232 16.7679C65.8232 17.6013 65.6683 18.3174 65.3584 18.9164C65.0511 19.5153 64.6071 19.975 64.0264 20.2953C63.4482 20.6156 62.7529 20.7758 61.9404 20.7758ZM60.6787 19.5219H61.8701C62.4274 19.5219 62.8923 19.4203 63.2646 19.2172C63.637 19.0114 63.917 18.7054 64.1045 18.2992C64.292 17.8903 64.3857 17.3799 64.3857 16.7679C64.3857 16.156 64.292 15.6482 64.1045 15.2445C63.917 14.8383 63.6396 14.5349 63.2725 14.3344C62.9079 14.1312 62.4548 14.0297 61.9131 14.0297H60.6787V19.5219ZM72.2432 12.7758H73.6924V18.0023C73.6924 18.5752 73.557 19.0791 73.2861 19.514C73.0179 19.9489 72.6403 20.2888 72.1533 20.5336C71.6663 20.7758 71.0973 20.8969 70.4463 20.8969C69.7926 20.8969 69.2223 20.7758 68.7354 20.5336C68.2484 20.2888 67.8708 19.9489 67.6025 19.514C67.3343 19.0791 67.2002 18.5752 67.2002 18.0023V12.7758H68.6494V17.8812C68.6494 18.2146 68.7223 18.5114 68.8682 18.7719C69.0166 19.0323 69.2249 19.2367 69.4932 19.3851C69.7614 19.531 70.0791 19.6039 70.4463 19.6039C70.8135 19.6039 71.1312 19.531 71.3994 19.3851C71.6702 19.2367 71.8786 19.0323 72.0244 18.7719C72.1702 18.5114 72.2432 18.2146 72.2432 17.8812V12.7758ZM82.1152 15.475H80.6543C80.6126 15.2354 80.5358 15.0232 80.4238 14.8383C80.3118 14.6508 80.1725 14.4919 80.0059 14.3617C79.8392 14.2315 79.6491 14.1338 79.4355 14.0687C79.2246 14.001 78.9967 13.9672 78.752 13.9672C78.3171 13.9672 77.9316 14.0765 77.5957 14.2953C77.2598 14.5114 76.9967 14.8291 76.8066 15.2484C76.6165 15.6651 76.5215 16.1742 76.5215 16.7758C76.5215 17.3877 76.6165 17.9034 76.8066 18.3226C76.9993 18.7393 77.2624 19.0544 77.5957 19.2679C77.9316 19.4789 78.3158 19.5844 78.748 19.5844C78.9876 19.5844 79.2116 19.5531 79.4199 19.4906C79.6309 19.4255 79.8197 19.3304 79.9863 19.2054C80.1556 19.0804 80.2975 18.9268 80.4121 18.7445C80.5293 18.5622 80.61 18.3539 80.6543 18.1195L82.1152 18.1273C82.0605 18.5075 81.9421 18.8643 81.7598 19.1976C81.5801 19.531 81.3444 19.8252 81.0527 20.0804C80.7611 20.333 80.4199 20.531 80.0293 20.6742C79.6387 20.8148 79.2051 20.8851 78.7285 20.8851C78.0254 20.8851 77.3978 20.7224 76.8457 20.3969C76.2936 20.0713 75.8587 19.6013 75.541 18.9867C75.2233 18.3721 75.0645 17.6351 75.0645 16.7758C75.0645 15.9138 75.2246 15.1768 75.5449 14.5648C75.8652 13.9502 76.3014 13.4802 76.8535 13.1547C77.4056 12.8291 78.0306 12.6664 78.7285 12.6664C79.1738 12.6664 79.5879 12.7289 79.9707 12.8539C80.3535 12.9789 80.6947 13.1625 80.9941 13.4047C81.2936 13.6442 81.5397 13.9385 81.7324 14.2875C81.9277 14.6338 82.0553 15.0297 82.1152 15.475ZM83.0908 13.9906V12.7758H89.4736V13.9906H87.001V20.7758H85.5635V13.9906H83.0908ZM93.4326 20.7758V12.7758H94.8818V16.1625H98.5889V12.7758H100.042V20.7758H98.5889V17.3773H94.8818V20.7758H93.4326ZM106.661 12.7758H108.11V18.0023C108.11 18.5752 107.975 19.0791 107.704 19.514C107.436 19.9489 107.058 20.2888 106.571 20.5336C106.084 20.7758 105.515 20.8969 104.864 20.8969C104.211 20.8969 103.64 20.7758 103.153 20.5336C102.666 20.2888 102.289 19.9489 102.021 19.514C101.752 19.0791 101.618 18.5752 101.618 18.0023V12.7758H103.067V17.8812C103.067 18.2146 103.14 18.5114 103.286 18.7719C103.435 19.0323 103.643 19.2367 103.911 19.3851C104.179 19.531 104.497 19.6039 104.864 19.6039C105.231 19.6039 105.549 19.531 105.817 19.3851C106.088 19.2367 106.297 19.0323 106.442 18.7719C106.588 18.5114 106.661 18.2146 106.661 17.8812V12.7758ZM116.26 12.7758V20.7758H114.971L111.201 15.3265H111.135V20.7758H109.686V12.7758H110.982L114.748 18.2289H114.818V12.7758H116.26ZM117.487 13.9906V12.7758H123.87V13.9906H121.397V20.7758H119.96V13.9906H117.487Z" fill="black"/>
</g>
<defs>
<clipPath id="clip0_14393_44867">
<rect width="160" height="48" fill="white"/>
</clipPath>
</defs>
</svg>
